<svg width="24" height="24" viewBox="0 0 24 24" fill="none" xmlns="http://www.w3.org/2000/svg">
<g clip-path="url(#clip0_136_819)">
<rect width="24" height="24" rx="12" fill="#22C55E"/>
<path d="M15.974 10.016L15.974 11.168H11.372V15.584C11.372 16.0853 11.436 16.4267 11.564 16.608C11.7027 16.7893 11.9693 16.88 12.364 16.88C12.684 16.88 13.004 16.8107 13.324 16.672C13.6547 16.5333 13.948 16.3467 14.204 16.112C14.4707 15.8773 14.684 15.6107 14.844 15.312C15.004 15.0027 15.084 14.688 15.084 14.368C15.084 14.112 15.0093 13.9147 14.86 13.776C14.7213 13.6373 14.492 13.568 14.172 13.568C13.884 13.568 13.6173 13.6 13.372 13.664L13.212 12.576C13.3933 12.5227 13.5853 12.4853 13.788 12.464C14.0013 12.432 14.2147 12.416 14.428 12.416C14.9933 12.416 15.452 12.56 15.804 12.848C16.1667 13.1253 16.348 13.5787 16.348 14.208C16.348 14.6987 16.2307 15.1733 15.996 15.632C15.772 16.08 15.468 16.4853 15.084 16.848C14.7 17.2 14.268 17.4773 13.788 17.68C13.308 17.8827 12.8173 17.984 12.316 17.984C11.9213 17.984 11.596 17.9413 11.34 17.856C11.084 17.76 10.8707 17.632 10.7 17.472C10.5933 17.3653 10.4973 17.248 10.412 17.12C10.3267 16.9813 10.2573 16.8 10.204 16.576C10.1613 16.3413 10.14 16.032 10.14 15.648V11.168H8.588V10.016H15.974ZM9.388 6C9.69733 6 9.964 6.04267 10.188 6.128C10.4227 6.21333 10.62 6.34133 10.78 6.512C10.972 6.71467 11.116 6.992 11.212 7.344C11.3187 7.68533 11.372 8.17067 11.372 8.8V10.144H10.14V8.864C10.14 8.49067 10.1133 8.18133 10.06 7.936C10.0173 7.68 9.916 7.488 9.756 7.36C9.596 7.22133 9.356 7.152 9.036 7.152C8.83333 7.152 8.63067 7.184 8.428 7.248C8.236 7.30133 7.97397 7.98399 7.5 7.152C7.47397 6.48399 8.12933 6.176 8.428 6.112C8.73733 6.03733 9.05733 6 9.388 6Z" fill="black"/>
</g>
<rect x="0.5" y="0.5" width="23" height="23" rx="11.5" stroke="black"/>
<defs>
<clipPath id="clip0_136_819">
<rect width="24" height="24" rx="12" fill="white"/>
</clipPath>
</defs>
</svg>
